<svg id="Layer_1" data-name="Layer 1" xmlns="http://www.w3.org/2000/svg" viewBox="0 0 255.99 256"><defs><style>.cls-1{fill:#d2a3aa;}</style></defs><title>arrow</title><path class="cls-1" d="M375.38,220.43c-4.55-.89-9.15-1.57-13.72-2.35h-22c-9.56,2.1-19.48,3.17-28.6,6.48-49.92,18.13-79.26,53.54-87.44,106.21-.23,1.45-.64,2.87-1,4.31v22c.85,4.88,1.55,9.79,2.59,14.63C237,426.4,280.66,466.3,336.3,473.22a25.1,25.1,0,0,1,3.36.86h22c4.57-.78,9.17-1.46,13.72-2.36,59.72-11.79,103.37-65,103.27-125.89C478.55,285.21,434.82,232.09,375.38,220.43Zm-24.84,182-78.79-78.95,21.7-21.42L350,359.52l57.37-57.9,21.78,22.15Z" transform="translate(-222.66 -218.08)"/></svg>