<?xml version="1.0" encoding="utf-8"?>
<!-- Generator: Adobe Illustrator 22.1.0, SVG Export Plug-In . SVG Version: 6.00 Build 0)  -->
<svg version="1.1" id="Layer_1" xmlns="http://www.w3.org/2000/svg" xmlns:xlink="http://www.w3.org/1999/xlink" x="0px" y="0px"
	 viewBox="0 0 841.9 595.3" style="enable-background:new 0 0 841.9 595.3;" xml:space="preserve">
<style type="text/css">
	.st0{fill:#FFFFFF;}
</style>
<path class="st0" d="M480.3,269.1l95.5-95.5c12.3-12.3,12.3-32.1,0-44.4l0,0c-12.3-12.3-32.1-12.3-44.4,0l-95.5,95.5l-95.5-95.5
	c-12.3-12.3-32.1-12.3-44.4,0l0,0c-12.3,12.3-12.3,32.1,0,44.4l95.5,95.5L296,364.6c-12.3,12.3-12.3,32.1,0,44.4h0
	c12.3,12.3,32.1,12.3,44.4,0l95.5-95.5l95.5,95.5c12.3,12.3,32.1,12.3,44.4,0h0c12.3-12.3,12.3-32.1,0-44.4L480.3,269.1z"/>
</svg>
